<svg width="26" height="27" viewBox="0 0 26 27" fill="none" xmlns="http://www.w3.org/2000/svg">
<path d="M7.12502 3.29169C7.12502 2.90491 6.97138 2.53398 6.69789 2.26049C6.42439 1.987 6.05346 1.83335 5.66669 1.83335H2.75002C2.36325 1.83335 1.99231 1.987 1.71882 2.26049C1.44533 2.53398 1.29169 2.90491 1.29169 3.29169V23.7084C1.29169 24.0951 1.44533 24.4661 1.71882 24.7396C1.99231 25.013 2.36325 25.1667 2.75002 25.1667H5.66669C6.05346 25.1667 6.42439 25.013 6.69789 24.7396C6.97138 24.4661 7.12502 24.0951 7.12502 23.7084M7.12502 3.29169V23.7084M7.12502 3.29169C7.12502 2.90491 7.27867 2.53398 7.55216 2.26049C7.82565 1.987 8.19658 1.83335 8.58336 1.83335H11.5C11.8868 1.83335 12.2577 1.987 12.5312 2.26049C12.8047 2.53398 12.9584 2.90491 12.9584 3.29169V23.7084C12.9584 24.0951 12.8047 24.4661 12.5312 24.7396C12.2577 25.013 11.8868 25.1667 11.5 25.1667H8.58336C8.19658 25.1667 7.82565 25.013 7.55216 24.7396C7.27867 24.4661 7.12502 24.0951 7.12502 23.7084M1.29169 7.66669H7.12502M7.12502 19.3334H12.9584M14.4167 9.12502L20.25 7.66669M17.3334 19.3334L23.0544 17.9042M14.1294 2.65002L17.3144 1.8771C18.134 1.68023 18.9667 2.15419 19.184 2.9446L24.5725 22.5125C24.6676 22.8708 24.6255 23.2516 24.4545 23.5804C24.2834 23.9092 23.9958 24.1624 23.6479 24.2902L23.454 24.35L20.269 25.1229C19.4494 25.3198 18.6167 24.8459 18.3994 24.0554L13.0109 4.48752C12.9158 4.12928 12.9579 3.74846 13.1289 3.41963C13.2999 3.09081 13.5876 2.83768 13.9354 2.70981L14.1294 2.65002Z" stroke="#00007E" stroke-opacity="0.75" stroke-width="2" stroke-linecap="round" stroke-linejoin="round"/>
</svg>
