<svg width="24" height="21" viewBox="0 0 24 21" fill="none" xmlns="http://www.w3.org/2000/svg">
<path d="M8.09999 11.7H6.29999C5.96849 11.7 5.69999 11.9685 5.69999 12.3V19.5C5.69999 19.8315 5.96849 20.1 6.29999 20.1H8.09999C8.43149 20.1 8.69999 19.8315 8.69999 19.5V12.3C8.69999 11.9685 8.43149 11.7 8.09999 11.7ZM3.29999 15.3H1.49999C1.16849 15.3 0.899994 15.5685 0.899994 15.9V19.5C0.899994 19.8315 1.16849 20.1 1.49999 20.1H3.29999C3.63149 20.1 3.89999 19.8315 3.89999 19.5V15.9C3.89999 15.5685 3.63149 15.3 3.29999 15.3ZM12.9 8.10002H11.1C10.7685 8.10002 10.5 8.36852 10.5 8.70002V19.5C10.5 19.8315 10.7685 20.1 11.1 20.1H12.9C13.2315 20.1 13.5 19.8315 13.5 19.5V8.70002C13.5 8.36852 13.2315 8.10002 12.9 8.10002ZM17.7 4.50002H15.9C15.5685 4.50002 15.3 4.76852 15.3 5.10002V19.5C15.3 19.8315 15.5685 20.1 15.9 20.1H17.7C18.0315 20.1 18.3 19.8315 18.3 19.5V5.10002C18.3 4.76852 18.0315 4.50002 17.7 4.50002ZM22.5 0.900024H20.7C20.3685 0.900024 20.1 1.16852 20.1 1.50002V19.5C20.1 19.8315 20.3685 20.1 20.7 20.1H22.5C22.8315 20.1 23.1 19.8315 23.1 19.5V1.50002C23.1 1.16852 22.8315 0.900024 22.5 0.900024Z" fill="#00007E"/>
</svg>
